<svg xmlns="http://www.w3.org/2000/svg" xmlns:xlink="http://www.w3.org/1999/xlink" width="400" zoomAndPan="magnify" viewBox="0 0 300 67.499998" height="90" preserveAspectRatio="xMidYMid meet" version="1.0"><defs><g/></defs><g fill="#400e63" fill-opacity="1"><g transform="translate(2.427758, 48.82897)"><g><path d="M 10.5625 0 L 6.375 0 C 6.050781 0 5.816406 -0.0703125 5.671875 -0.21875 C 5.523438 -0.363281 5.453125 -0.597656 5.453125 -0.921875 L 5.453125 -13.609375 L 1.65625 -13.609375 C 1.320312 -13.609375 1.082031 -13.679688 0.9375 -13.828125 C 0.789062 -13.972656 0.71875 -14.207031 0.71875 -14.53125 L 0.71875 -17.65625 C 0.71875 -17.976562 0.789062 -18.210938 0.9375 -18.359375 C 1.082031 -18.503906 1.320312 -18.578125 1.65625 -18.578125 L 15.28125 -18.578125 C 15.601562 -18.578125 15.835938 -18.503906 15.984375 -18.359375 C 16.128906 -18.210938 16.203125 -17.976562 16.203125 -17.65625 L 16.203125 -14.53125 C 16.203125 -14.207031 16.128906 -13.972656 15.984375 -13.828125 C 15.835938 -13.679688 15.601562 -13.609375 15.28125 -13.609375 L 11.484375 -13.609375 L 11.484375 -0.921875 C 11.484375 -0.597656 11.410156 -0.363281 11.265625 -0.21875 C 11.117188 -0.0703125 10.882812 0 10.5625 0 Z M 10.5625 0 "/></g></g></g><g fill="#400e63" fill-opacity="1"><g transform="translate(19.359461, 48.82897)"><g><path d="M 17.609375 -4.875 C 17.609375 -4.082031 17.488281 -3.363281 17.25 -2.71875 C 17.019531 -2.070312 16.609375 -1.519531 16.015625 -1.0625 C 15.421875 -0.613281 14.609375 -0.257812 13.578125 0 C 12.546875 0.257812 11.226562 0.390625 9.625 0.390625 C 8.03125 0.390625 6.710938 0.257812 5.671875 0 C 4.640625 -0.257812 3.828125 -0.613281 3.234375 -1.0625 C 2.640625 -1.519531 2.226562 -2.070312 2 -2.71875 C 1.769531 -3.363281 1.65625 -4.082031 1.65625 -4.875 L 1.65625 -17.65625 C 1.65625 -17.976562 1.726562 -18.210938 1.875 -18.359375 C 2.019531 -18.503906 2.253906 -18.578125 2.578125 -18.578125 L 6.640625 -18.578125 C 6.960938 -18.578125 7.195312 -18.503906 7.34375 -18.359375 C 7.488281 -18.210938 7.5625 -17.976562 7.5625 -17.65625 L 7.5625 -5.890625 C 7.5625 -5.546875 7.691406 -5.253906 7.953125 -5.015625 C 8.210938 -4.785156 8.785156 -4.671875 9.671875 -4.671875 C 10.585938 -4.671875 11.175781 -4.785156 11.4375 -5.015625 C 11.695312 -5.253906 11.828125 -5.546875 11.828125 -5.890625 L 11.828125 -17.65625 C 11.828125 -17.976562 11.898438 -18.210938 12.046875 -18.359375 C 12.191406 -18.503906 12.425781 -18.578125 12.75 -18.578125 L 16.671875 -18.578125 C 17.003906 -18.578125 17.242188 -18.503906 17.390625 -18.359375 C 17.535156 -18.210938 17.609375 -17.976562 17.609375 -17.65625 Z M 17.609375 -4.875 "/></g></g></g><g fill="#400e63" fill-opacity="1"><g transform="translate(38.614103, 48.82897)"><g><path d="M 7.609375 -13.9375 L 7.609375 -10.640625 L 9.546875 -10.640625 C 9.992188 -10.640625 10.296875 -10.753906 10.453125 -10.984375 C 10.609375 -11.210938 10.6875 -11.5 10.6875 -11.84375 L 10.6875 -12.71875 C 10.6875 -13.0625 10.609375 -13.347656 10.453125 -13.578125 C 10.296875 -13.816406 9.992188 -13.9375 9.546875 -13.9375 Z M 6.6875 0 L 2.703125 0 C 2.378906 0 2.144531 -0.0703125 2 -0.21875 C 1.851562 -0.363281 1.78125 -0.597656 1.78125 -0.921875 L 1.78125 -17.65625 C 1.78125 -17.976562 1.851562 -18.210938 2 -18.359375 C 2.144531 -18.503906 2.378906 -18.578125 2.703125 -18.578125 L 11.3125 -18.578125 C 13.238281 -18.578125 14.566406 -18.175781 15.296875 -17.375 C 16.023438 -16.582031 16.390625 -15.550781 16.390625 -14.28125 L 16.390625 -13.09375 C 16.390625 -12.363281 16.28125 -11.742188 16.0625 -11.234375 C 15.851562 -10.734375 15.484375 -10.367188 14.953125 -10.140625 C 15.878906 -10.035156 16.628906 -9.65625 17.203125 -9 C 17.773438 -8.351562 18.0625 -7.488281 18.0625 -6.40625 L 18.0625 -0.921875 C 18.0625 -0.597656 17.988281 -0.363281 17.84375 -0.21875 C 17.695312 -0.0703125 17.460938 0 17.140625 0 L 13.140625 0 C 12.804688 0 12.566406 -0.0703125 12.421875 -0.21875 C 12.273438 -0.363281 12.203125 -0.597656 12.203125 -0.921875 L 12.203125 -4.875 C 12.203125 -5.257812 12.128906 -5.539062 11.984375 -5.71875 C 11.835938 -5.894531 11.585938 -5.984375 11.234375 -5.984375 L 7.609375 -5.984375 L 7.609375 -0.921875 C 7.609375 -0.597656 7.535156 -0.363281 7.390625 -0.21875 C 7.242188 -0.0703125 7.007812 0 6.6875 0 Z M 6.6875 0 "/></g></g></g><g fill="#400e63" fill-opacity="1"><g transform="translate(57.791323, 48.82897)"><g><path d="M 7.609375 -13.9375 L 7.609375 -10.640625 L 9.546875 -10.640625 C 9.992188 -10.640625 10.296875 -10.753906 10.453125 -10.984375 C 10.609375 -11.210938 10.6875 -11.5 10.6875 -11.84375 L 10.6875 -12.71875 C 10.6875 -13.0625 10.609375 -13.347656 10.453125 -13.578125 C 10.296875 -13.816406 9.992188 -13.9375 9.546875 -13.9375 Z M 6.6875 0 L 2.703125 0 C 2.378906 0 2.144531 -0.0703125 2 -0.21875 C 1.851562 -0.363281 1.78125 -0.597656 1.78125 -0.921875 L 1.78125 -17.65625 C 1.78125 -17.976562 1.851562 -18.210938 2 -18.359375 C 2.144531 -18.503906 2.378906 -18.578125 2.703125 -18.578125 L 11.3125 -18.578125 C 13.238281 -18.578125 14.566406 -18.175781 15.296875 -17.375 C 16.023438 -16.582031 16.390625 -15.550781 16.390625 -14.28125 L 16.390625 -13.09375 C 16.390625 -12.363281 16.28125 -11.742188 16.0625 -11.234375 C 15.851562 -10.734375 15.484375 -10.367188 14.953125 -10.140625 C 15.878906 -10.035156 16.628906 -9.65625 17.203125 -9 C 17.773438 -8.351562 18.0625 -7.488281 18.0625 -6.40625 L 18.0625 -0.921875 C 18.0625 -0.597656 17.988281 -0.363281 17.84375 -0.21875 C 17.695312 -0.0703125 17.460938 0 17.140625 0 L 13.140625 0 C 12.804688 0 12.566406 -0.0703125 12.421875 -0.21875 C 12.273438 -0.363281 12.203125 -0.597656 12.203125 -0.921875 L 12.203125 -4.875 C 12.203125 -5.257812 12.128906 -5.539062 11.984375 -5.71875 C 11.835938 -5.894531 11.585938 -5.984375 11.234375 -5.984375 L 7.609375 -5.984375 L 7.609375 -0.921875 C 7.609375 -0.597656 7.535156 -0.363281 7.390625 -0.21875 C 7.242188 -0.0703125 7.007812 0 6.6875 0 Z M 6.6875 0 "/></g></g></g><g fill="#400e63" fill-opacity="1"><g transform="translate(76.968544, 48.82897)"><g><path d="M 14.6875 0 L 2.703125 0 C 2.378906 0 2.144531 -0.0703125 2 -0.21875 C 1.851562 -0.363281 1.78125 -0.597656 1.78125 -0.921875 L 1.78125 -17.65625 C 1.78125 -17.976562 1.851562 -18.210938 2 -18.359375 C 2.144531 -18.503906 2.378906 -18.578125 2.703125 -18.578125 L 14.6875 -18.578125 C 15.007812 -18.578125 15.242188 -18.503906 15.390625 -18.359375 C 15.535156 -18.210938 15.609375 -17.976562 15.609375 -17.65625 L 15.609375 -14.640625 C 15.609375 -14.304688 15.535156 -14.066406 15.390625 -13.921875 C 15.242188 -13.773438 15.007812 -13.703125 14.6875 -13.703125 L 7.5625 -13.703125 L 7.5625 -11.71875 L 12.59375 -11.71875 C 12.925781 -11.71875 13.164062 -11.644531 13.3125 -11.5 C 13.457031 -11.351562 13.53125 -11.117188 13.53125 -10.796875 L 13.53125 -8.03125 C 13.53125 -7.695312 13.457031 -7.457031 13.3125 -7.3125 C 13.164062 -7.164062 12.925781 -7.09375 12.59375 -7.09375 L 7.5625 -7.09375 L 7.5625 -4.875 L 14.6875 -4.875 C 15.007812 -4.875 15.242188 -4.800781 15.390625 -4.65625 C 15.535156 -4.507812 15.609375 -4.273438 15.609375 -3.953125 L 15.609375 -0.921875 C 15.609375 -0.597656 15.535156 -0.363281 15.390625 -0.21875 C 15.242188 -0.0703125 15.007812 0 14.6875 0 Z M 14.6875 0 "/></g></g></g><g fill="#400e63" fill-opacity="1"><g transform="translate(93.848621, 48.82897)"><g><path d="M 10.5625 0 L 6.375 0 C 6.050781 0 5.816406 -0.0703125 5.671875 -0.21875 C 5.523438 -0.363281 5.453125 -0.597656 5.453125 -0.921875 L 5.453125 -13.609375 L 1.65625 -13.609375 C 1.320312 -13.609375 1.082031 -13.679688 0.9375 -13.828125 C 0.789062 -13.972656 0.71875 -14.207031 0.71875 -14.53125 L 0.71875 -17.65625 C 0.71875 -17.976562 0.789062 -18.210938 0.9375 -18.359375 C 1.082031 -18.503906 1.320312 -18.578125 1.65625 -18.578125 L 15.28125 -18.578125 C 15.601562 -18.578125 15.835938 -18.503906 15.984375 -18.359375 C 16.128906 -18.210938 16.203125 -17.976562 16.203125 -17.65625 L 16.203125 -14.53125 C 16.203125 -14.207031 16.128906 -13.972656 15.984375 -13.828125 C 15.835938 -13.679688 15.601562 -13.609375 15.28125 -13.609375 L 11.484375 -13.609375 L 11.484375 -0.921875 C 11.484375 -0.597656 11.410156 -0.363281 11.265625 -0.21875 C 11.117188 -0.0703125 10.882812 0 10.5625 0 Z M 10.5625 0 "/></g></g></g><g fill="#400e63" fill-opacity="1"><g transform="translate(112.114758, 44.804727)"><g><path d="M 13.703125 4.125 L 8.078125 4.125 C 7.523438 4.125 7.117188 3.992188 6.859375 3.734375 C 6.609375 3.484375 6.484375 3.082031 6.484375 2.53125 L 6.484375 -14.15625 L 1.734375 -14.15625 C 1.179688 -14.15625 0.773438 -14.28125 0.515625 -14.53125 C 0.265625 -14.789062 0.140625 -15.195312 0.140625 -15.75 L 0.140625 -19.953125 C 0.140625 -20.253906 0.175781 -20.507812 0.25 -20.71875 C 0.332031 -20.925781 0.457031 -21.097656 0.625 -21.234375 L 5.09375 -25.015625 C 5.21875 -25.109375 5.375 -25.179688 5.5625 -25.234375 C 5.757812 -25.296875 5.976562 -25.328125 6.21875 -25.328125 L 24.53125 -25.328125 C 25.09375 -25.328125 25.5 -25.195312 25.75 -24.9375 C 26 -24.6875 26.125 -24.285156 26.125 -23.734375 L 26.125 -19.53125 C 26.125 -19.238281 26.082031 -18.988281 26 -18.78125 C 25.925781 -18.570312 25.804688 -18.394531 25.640625 -18.25 L 21.140625 -14.5 C 21.046875 -14.40625 20.898438 -14.320312 20.703125 -14.25 C 20.503906 -14.1875 20.289062 -14.15625 20.0625 -14.15625 L 19.78125 -14.15625 L 19.78125 -1.25 C 19.78125 -0.945312 19.738281 -0.691406 19.65625 -0.484375 C 19.570312 -0.273438 19.453125 -0.101562 19.296875 0.03125 L 14.78125 3.78125 C 14.6875 3.875 14.539062 3.953125 14.34375 4.015625 C 14.15625 4.085938 13.941406 4.125 13.703125 4.125 Z M 18.1875 0 C 18.625 0 18.941406 -0.0976562 19.140625 -0.296875 C 19.335938 -0.492188 19.4375 -0.8125 19.4375 -1.25 L 19.4375 -18.28125 L 24.53125 -18.28125 C 24.96875 -18.28125 25.285156 -18.378906 25.484375 -18.578125 C 25.679688 -18.773438 25.78125 -19.09375 25.78125 -19.53125 L 25.78125 -23.734375 C 25.78125 -24.171875 25.679688 -24.488281 25.484375 -24.6875 C 25.285156 -24.882812 24.96875 -24.984375 24.53125 -24.984375 L 6.21875 -24.984375 C 5.769531 -24.984375 5.445312 -24.882812 5.25 -24.6875 C 5.0625 -24.488281 4.96875 -24.171875 4.96875 -23.734375 L 4.96875 -19.53125 C 4.96875 -19.09375 5.0625 -18.773438 5.25 -18.578125 C 5.445312 -18.378906 5.769531 -18.28125 6.21875 -18.28125 L 11.3125 -18.28125 L 11.3125 -1.25 C 11.3125 -0.8125 11.410156 -0.492188 11.609375 -0.296875 C 11.804688 -0.0976562 12.125 0 12.5625 0 Z M 15.203125 -3.125 L 15.203125 -21.515625 L 8.078125 -21.515625 L 8.078125 -21.859375 L 22.65625 -21.859375 L 22.65625 -21.515625 L 15.546875 -21.515625 L 15.546875 -3.125 Z M 15.203125 -3.125 "/></g></g></g><g fill="#400e63" fill-opacity="1"><g transform="translate(138.348486, 44.804727)"><g><path d="M 19.265625 4.125 L 3.15625 4.125 C 2.601562 4.125 2.195312 3.992188 1.9375 3.734375 C 1.6875 3.484375 1.5625 3.082031 1.5625 2.53125 L 1.5625 -19.953125 C 1.5625 -20.253906 1.597656 -20.507812 1.671875 -20.71875 C 1.753906 -20.925781 1.878906 -21.097656 2.046875 -21.234375 L 6.53125 -25.015625 C 6.644531 -25.109375 6.796875 -25.179688 6.984375 -25.234375 C 7.179688 -25.296875 7.398438 -25.328125 7.640625 -25.328125 L 23.734375 -25.328125 C 24.285156 -25.328125 24.6875 -25.195312 24.9375 -24.9375 C 25.195312 -24.6875 25.328125 -24.285156 25.328125 -23.734375 L 25.328125 -19.671875 C 25.328125 -19.367188 25.285156 -19.113281 25.203125 -18.90625 C 25.128906 -18.695312 25.007812 -18.523438 24.84375 -18.390625 L 21.859375 -15.921875 C 22.085938 -15.804688 22.253906 -15.632812 22.359375 -15.40625 C 22.460938 -15.175781 22.515625 -14.875 22.515625 -14.5 L 22.515625 -10.796875 C 22.515625 -10.492188 22.472656 -10.238281 22.390625 -10.03125 C 22.316406 -9.820312 22.195312 -9.648438 22.03125 -9.515625 L 18.953125 -6.90625 L 23.734375 -6.90625 C 24.285156 -6.90625 24.6875 -6.773438 24.9375 -6.515625 C 25.195312 -6.265625 25.328125 -5.863281 25.328125 -5.3125 L 25.328125 -1.25 C 25.328125 -0.945312 25.285156 -0.691406 25.203125 -0.484375 C 25.128906 -0.273438 25.007812 -0.101562 24.84375 0.03125 L 20.34375 3.78125 C 20.25 3.875 20.101562 3.953125 19.90625 4.015625 C 19.707031 4.085938 19.492188 4.125 19.265625 4.125 Z M 23.734375 0 C 24.171875 0 24.488281 -0.0976562 24.6875 -0.296875 C 24.882812 -0.492188 24.984375 -0.8125 24.984375 -1.25 L 24.984375 -5.3125 C 24.984375 -5.75 24.882812 -6.066406 24.6875 -6.265625 C 24.488281 -6.460938 24.171875 -6.5625 23.734375 -6.5625 L 14.15625 -6.5625 L 14.15625 -9.546875 L 20.921875 -9.546875 C 21.359375 -9.546875 21.675781 -9.644531 21.875 -9.84375 C 22.070312 -10.039062 22.171875 -10.359375 22.171875 -10.796875 L 22.171875 -14.5 C 22.171875 -14.945312 22.070312 -15.265625 21.875 -15.453125 C 21.675781 -15.648438 21.359375 -15.75 20.921875 -15.75 L 14.15625 -15.75 L 14.15625 -18.421875 L 23.734375 -18.421875 C 24.171875 -18.421875 24.488281 -18.519531 24.6875 -18.71875 C 24.882812 -18.914062 24.984375 -19.234375 24.984375 -19.671875 L 24.984375 -23.734375 C 24.984375 -24.171875 24.882812 -24.488281 24.6875 -24.6875 C 24.488281 -24.882812 24.171875 -24.984375 23.734375 -24.984375 L 7.640625 -24.984375 C 7.191406 -24.984375 6.867188 -24.882812 6.671875 -24.6875 C 6.484375 -24.488281 6.390625 -24.171875 6.390625 -23.734375 L 6.390625 -1.25 C 6.390625 -0.8125 6.484375 -0.492188 6.671875 -0.296875 C 6.867188 -0.0976562 7.191406 0 7.640625 0 Z M 21.859375 -3.46875 L 21.859375 -3.125 L 10.171875 -3.125 L 10.171875 -21.859375 L 21.859375 -21.859375 L 21.859375 -21.515625 L 10.515625 -21.515625 L 10.515625 -12.8125 L 19.046875 -12.8125 L 19.046875 -12.453125 L 10.515625 -12.453125 L 10.515625 -3.46875 Z M 21.859375 -3.46875 "/></g></g></g><g fill="#400e63" fill-opacity="1"><g transform="translate(164.512816, 44.804727)"><g><path d="M 2.53125 4.125 C 1.976562 4.125 1.570312 3.992188 1.3125 3.734375 C 1.0625 3.484375 0.9375 3.082031 0.9375 2.53125 L 0.9375 -1.53125 C 0.9375 -1.832031 0.976562 -2.085938 1.0625 -2.296875 C 1.144531 -2.503906 1.265625 -2.675781 1.421875 -2.8125 L 4.890625 -5.71875 C 3.660156 -6.09375 2.691406 -6.722656 1.984375 -7.609375 C 1.285156 -8.503906 0.9375 -9.785156 0.9375 -11.453125 L 0.9375 -15.09375 C 0.9375 -16.132812 1.109375 -17.0625 1.453125 -17.875 C 1.804688 -18.6875 2.304688 -19.367188 2.953125 -19.921875 L 7.46875 -23.703125 C 8.082031 -24.210938 8.851562 -24.609375 9.78125 -24.890625 C 10.707031 -25.179688 11.757812 -25.328125 12.9375 -25.328125 L 22.65625 -25.328125 C 23.21875 -25.328125 23.625 -25.195312 23.875 -24.9375 C 24.125 -24.6875 24.25 -24.285156 24.25 -23.734375 L 24.25 -19.609375 C 24.25 -19.304688 24.207031 -19.050781 24.125 -18.84375 C 24.050781 -18.632812 23.929688 -18.460938 23.765625 -18.328125 L 20.640625 -15.71875 C 22.097656 -15.394531 23.269531 -14.785156 24.15625 -13.890625 C 25.050781 -13.003906 25.5 -11.625 25.5 -9.75 L 25.5 -6.109375 C 25.5 -5.066406 25.328125 -4.140625 24.984375 -3.328125 C 24.640625 -2.515625 24.128906 -1.832031 23.453125 -1.28125 L 18.984375 2.46875 C 18.335938 3 17.550781 3.40625 16.625 3.6875 C 15.695312 3.976562 14.65625 4.125 13.5 4.125 Z M 17.96875 0 C 20.195312 0 21.953125 -0.523438 23.234375 -1.578125 C 24.515625 -2.628906 25.15625 -4.140625 25.15625 -6.109375 L 25.15625 -9.75 C 25.15625 -11.695312 24.65625 -13.085938 23.65625 -13.921875 C 22.664062 -14.753906 21.363281 -15.285156 19.75 -15.515625 L 14.578125 -16.203125 C 14.273438 -16.222656 14.039062 -16.335938 13.875 -16.546875 C 13.71875 -16.753906 13.640625 -17.007812 13.640625 -17.3125 C 13.640625 -17.613281 13.71875 -17.863281 13.875 -18.0625 C 14.039062 -18.257812 14.273438 -18.359375 14.578125 -18.359375 L 22.65625 -18.359375 C 23.101562 -18.359375 23.421875 -18.457031 23.609375 -18.65625 C 23.804688 -18.851562 23.90625 -19.171875 23.90625 -19.609375 L 23.90625 -23.734375 C 23.90625 -24.171875 23.804688 -24.488281 23.609375 -24.6875 C 23.421875 -24.882812 23.101562 -24.984375 22.65625 -24.984375 L 12.9375 -24.984375 C 10.695312 -24.984375 8.941406 -24.457031 7.671875 -23.40625 C 6.398438 -22.351562 5.765625 -20.84375 5.765625 -18.875 L 5.765625 -15.234375 C 5.765625 -13.285156 6.253906 -11.894531 7.234375 -11.0625 C 8.210938 -10.238281 9.515625 -9.707031 11.140625 -9.46875 L 16.34375 -8.75 C 16.644531 -8.71875 16.867188 -8.609375 17.015625 -8.421875 C 17.171875 -8.242188 17.25 -7.957031 17.25 -7.5625 C 17.25 -7.289062 17.171875 -7.054688 17.015625 -6.859375 C 16.867188 -6.660156 16.644531 -6.5625 16.34375 -6.5625 L 7.015625 -6.5625 C 6.566406 -6.5625 6.242188 -6.460938 6.046875 -6.265625 C 5.859375 -6.066406 5.765625 -5.75 5.765625 -5.3125 L 5.765625 -1.25 C 5.765625 -0.8125 5.859375 -0.492188 6.046875 -0.296875 C 6.242188 -0.0976562 6.566406 0 7.015625 0 Z M 20.78125 -21.859375 L 20.78125 -21.515625 L 13.078125 -21.515625 C 12.109375 -21.515625 11.332031 -21.25 10.75 -20.71875 C 10.175781 -20.1875 9.890625 -19.515625 9.890625 -18.703125 L 9.890625 -15.859375 C 9.890625 -15.046875 10.050781 -14.476562 10.375 -14.15625 C 10.695312 -13.832031 11.125 -13.625 11.65625 -13.53125 L 18.984375 -12.046875 C 19.679688 -11.898438 20.253906 -11.597656 20.703125 -11.140625 C 21.148438 -10.679688 21.375 -9.847656 21.375 -8.640625 L 21.375 -6.625 C 21.375 -5.601562 21.023438 -4.765625 20.328125 -4.109375 C 19.640625 -3.453125 18.707031 -3.125 17.53125 -3.125 L 8.890625 -3.125 L 8.890625 -3.46875 L 17.53125 -3.46875 C 18.59375 -3.46875 19.441406 -3.757812 20.078125 -4.34375 C 20.710938 -4.9375 21.03125 -5.695312 21.03125 -6.625 L 21.03125 -8.640625 C 21.03125 -9.722656 20.835938 -10.46875 20.453125 -10.875 C 20.078125 -11.28125 19.5625 -11.550781 18.90625 -11.6875 L 11.59375 -13.1875 C 10.988281 -13.300781 10.492188 -13.535156 10.109375 -13.890625 C 9.734375 -14.253906 9.546875 -14.910156 9.546875 -15.859375 L 9.546875 -18.703125 C 9.546875 -19.628906 9.867188 -20.382812 10.515625 -20.96875 C 11.160156 -21.5625 12.015625 -21.859375 13.078125 -21.859375 Z M 20.78125 -21.859375 "/></g></g></g><g fill="#400e63" fill-opacity="1"><g transform="translate(190.538339, 44.804727)"><g><path d="M 13.703125 4.125 L 8.078125 4.125 C 7.523438 4.125 7.117188 3.992188 6.859375 3.734375 C 6.609375 3.484375 6.484375 3.082031 6.484375 2.53125 L 6.484375 -14.15625 L 1.734375 -14.15625 C 1.179688 -14.15625 0.773438 -14.28125 0.515625 -14.53125 C 0.265625 -14.789062 0.140625 -15.195312 0.140625 -15.75 L 0.140625 -19.953125 C 0.140625 -20.253906 0.175781 -20.507812 0.25 -20.71875 C 0.332031 -20.925781 0.457031 -21.097656 0.625 -21.234375 L 5.09375 -25.015625 C 5.21875 -25.109375 5.375 -25.179688 5.5625 -25.234375 C 5.757812 -25.296875 5.976562 -25.328125 6.21875 -25.328125 L 24.53125 -25.328125 C 25.09375 -25.328125 25.5 -25.195312 25.75 -24.9375 C 26 -24.6875 26.125 -24.285156 26.125 -23.734375 L 26.125 -19.53125 C 26.125 -19.238281 26.082031 -18.988281 26 -18.78125 C 25.925781 -18.570312 25.804688 -18.394531 25.640625 -18.25 L 21.140625 -14.5 C 21.046875 -14.40625 20.898438 -14.320312 20.703125 -14.25 C 20.503906 -14.1875 20.289062 -14.15625 20.0625 -14.15625 L 19.78125 -14.15625 L 19.78125 -1.25 C 19.78125 -0.945312 19.738281 -0.691406 19.65625 -0.484375 C 19.570312 -0.273438 19.453125 -0.101562 19.296875 0.03125 L 14.78125 3.78125 C 14.6875 3.875 14.539062 3.953125 14.34375 4.015625 C 14.15625 4.085938 13.941406 4.125 13.703125 4.125 Z M 18.1875 0 C 18.625 0 18.941406 -0.0976562 19.140625 -0.296875 C 19.335938 -0.492188 19.4375 -0.8125 19.4375 -1.25 L 19.4375 -18.28125 L 24.53125 -18.28125 C 24.96875 -18.28125 25.285156 -18.378906 25.484375 -18.578125 C 25.679688 -18.773438 25.78125 -19.09375 25.78125 -19.53125 L 25.78125 -23.734375 C 25.78125 -24.171875 25.679688 -24.488281 25.484375 -24.6875 C 25.285156 -24.882812 24.96875 -24.984375 24.53125 -24.984375 L 6.21875 -24.984375 C 5.769531 -24.984375 5.445312 -24.882812 5.25 -24.6875 C 5.0625 -24.488281 4.96875 -24.171875 4.96875 -23.734375 L 4.96875 -19.53125 C 4.96875 -19.09375 5.0625 -18.773438 5.25 -18.578125 C 5.445312 -18.378906 5.769531 -18.28125 6.21875 -18.28125 L 11.3125 -18.28125 L 11.3125 -1.25 C 11.3125 -0.8125 11.410156 -0.492188 11.609375 -0.296875 C 11.804688 -0.0976562 12.125 0 12.5625 0 Z M 15.203125 -3.125 L 15.203125 -21.515625 L 8.078125 -21.515625 L 8.078125 -21.859375 L 22.65625 -21.859375 L 22.65625 -21.515625 L 15.546875 -21.515625 L 15.546875 -3.125 Z M 15.203125 -3.125 "/></g></g></g><g fill="#400e63" fill-opacity="1"><g transform="translate(216.772067, 44.804727)"><g><path d="M 17.390625 4.125 L 2.609375 4.125 C 2.046875 4.125 1.632812 3.992188 1.375 3.734375 C 1.125 3.484375 1 3.082031 1 2.53125 L 1 -1.59375 C 1 -1.894531 1.039062 -2.148438 1.125 -2.359375 C 1.207031 -2.566406 1.332031 -2.738281 1.5 -2.875 L 5.6875 -6.421875 L 5.6875 -14.15625 L 2.609375 -14.15625 C 2.046875 -14.15625 1.632812 -14.28125 1.375 -14.53125 C 1.125 -14.789062 1 -15.195312 1 -15.75 L 1 -19.953125 C 1 -20.253906 1.039062 -20.507812 1.125 -20.71875 C 1.207031 -20.925781 1.332031 -21.097656 1.5 -21.234375 L 5.96875 -25.015625 C 6.082031 -25.109375 6.238281 -25.179688 6.4375 -25.234375 C 6.632812 -25.296875 6.847656 -25.328125 7.078125 -25.328125 L 21.859375 -25.328125 C 22.421875 -25.328125 22.828125 -25.195312 23.078125 -24.9375 C 23.328125 -24.6875 23.453125 -24.285156 23.453125 -23.734375 L 23.453125 -19.53125 C 23.453125 -19.238281 23.410156 -18.988281 23.328125 -18.78125 C 23.253906 -18.570312 23.132812 -18.394531 22.96875 -18.25 L 18.84375 -14.78125 L 18.84375 -6.96875 L 21.859375 -6.96875 C 22.421875 -6.96875 22.828125 -6.84375 23.078125 -6.59375 C 23.328125 -6.34375 23.453125 -5.9375 23.453125 -5.375 L 23.453125 -1.25 C 23.453125 -0.945312 23.410156 -0.691406 23.328125 -0.484375 C 23.253906 -0.273438 23.132812 -0.101562 22.96875 0.03125 L 18.46875 3.78125 C 18.375 3.875 18.226562 3.953125 18.03125 4.015625 C 17.832031 4.085938 17.617188 4.125 17.390625 4.125 Z M 7.078125 0 L 21.859375 0 C 22.296875 0 22.613281 -0.0976562 22.8125 -0.296875 C 23.007812 -0.492188 23.109375 -0.8125 23.109375 -1.25 L 23.109375 -5.375 C 23.109375 -5.8125 23.007812 -6.128906 22.8125 -6.328125 C 22.613281 -6.523438 22.296875 -6.625 21.859375 -6.625 L 18.5 -6.625 L 18.5 -18.28125 L 21.859375 -18.28125 C 22.296875 -18.28125 22.613281 -18.378906 22.8125 -18.578125 C 23.007812 -18.773438 23.109375 -19.09375 23.109375 -19.53125 L 23.109375 -23.734375 C 23.109375 -24.171875 23.007812 -24.488281 22.8125 -24.6875 C 22.613281 -24.882812 22.296875 -24.984375 21.859375 -24.984375 L 7.078125 -24.984375 C 6.640625 -24.984375 6.320312 -24.882812 6.125 -24.6875 C 5.925781 -24.488281 5.828125 -24.171875 5.828125 -23.734375 L 5.828125 -19.53125 C 5.828125 -19.09375 5.925781 -18.773438 6.125 -18.578125 C 6.320312 -18.378906 6.640625 -18.28125 7.078125 -18.28125 L 10.515625 -18.28125 L 10.515625 -6.625 L 7.078125 -6.625 C 6.640625 -6.625 6.320312 -6.523438 6.125 -6.328125 C 5.925781 -6.128906 5.828125 -5.8125 5.828125 -5.375 L 5.828125 -1.25 C 5.828125 -0.8125 5.925781 -0.492188 6.125 -0.296875 C 6.320312 -0.0976562 6.640625 0 7.078125 0 Z M 19.984375 -3.125 L 8.953125 -3.125 L 8.953125 -3.46875 L 14.328125 -3.46875 L 14.328125 -21.515625 L 8.953125 -21.515625 L 8.953125 -21.859375 L 19.984375 -21.859375 L 19.984375 -21.515625 L 14.671875 -21.515625 L 14.671875 -3.46875 L 19.984375 -3.46875 Z M 19.984375 -3.125 "/></g></g></g><g fill="#400e63" fill-opacity="1"><g transform="translate(241.236064, 44.804727)"><g><path d="M 10.96875 -21.578125 L 23.734375 -7.21875 L 23.734375 -21.859375 L 24.078125 -21.859375 L 24.078125 -3.125 L 23.734375 -3.125 L 23.734375 -6.703125 L 10.625 -21.40625 C 10.59375 -21.4375 10.5625 -21.460938 10.53125 -21.484375 C 10.5 -21.503906 10.472656 -21.515625 10.453125 -21.515625 C 10.421875 -21.515625 10.398438 -21.503906 10.390625 -21.484375 C 10.378906 -21.460938 10.375 -21.4375 10.375 -21.40625 L 10.375 -3.125 L 10.03125 -3.125 L 10.03125 -21.484375 C 10.03125 -21.617188 10.078125 -21.71875 10.171875 -21.78125 C 10.265625 -21.851562 10.359375 -21.890625 10.453125 -21.890625 C 10.535156 -21.890625 10.613281 -21.867188 10.6875 -21.828125 C 10.757812 -21.785156 10.851562 -21.703125 10.96875 -21.578125 Z M 12.84375 0 C 13.28125 0 13.597656 -0.0976562 13.796875 -0.296875 C 13.992188 -0.492188 14.09375 -0.8125 14.09375 -1.25 L 14.09375 -12.703125 L 20.03125 -5.515625 L 20.03125 -1.25 C 20.03125 -0.8125 20.125 -0.492188 20.3125 -0.296875 C 20.507812 -0.0976562 20.828125 0 21.265625 0 L 26.484375 0 C 26.921875 0 27.238281 -0.0976562 27.4375 -0.296875 C 27.632812 -0.492188 27.734375 -0.8125 27.734375 -1.25 L 27.734375 -23.734375 C 27.734375 -24.171875 27.632812 -24.488281 27.4375 -24.6875 C 27.238281 -24.882812 26.921875 -24.984375 26.484375 -24.984375 L 21.265625 -24.984375 C 20.828125 -24.984375 20.507812 -24.882812 20.3125 -24.6875 C 20.125 -24.488281 20.03125 -24.171875 20.03125 -23.734375 L 20.03125 -16.34375 L 13.296875 -24.046875 C 12.992188 -24.390625 12.6875 -24.628906 12.375 -24.765625 C 12.0625 -24.910156 11.6875 -24.984375 11.25 -24.984375 L 7.640625 -24.984375 C 7.191406 -24.984375 6.867188 -24.882812 6.671875 -24.6875 C 6.484375 -24.488281 6.390625 -24.171875 6.390625 -23.734375 L 6.390625 -1.25 C 6.390625 -0.8125 6.484375 -0.492188 6.671875 -0.296875 C 6.867188 -0.0976562 7.191406 0 7.640625 0 Z M 13.953125 0.03125 L 9.4375 3.78125 C 9.34375 3.875 9.195312 3.953125 9 4.015625 C 8.800781 4.085938 8.585938 4.125 8.359375 4.125 L 3.15625 4.125 C 2.601562 4.125 2.195312 3.992188 1.9375 3.734375 C 1.6875 3.484375 1.5625 3.082031 1.5625 2.53125 L 1.5625 -19.953125 C 1.5625 -20.253906 1.597656 -20.507812 1.671875 -20.71875 C 1.753906 -20.925781 1.878906 -21.097656 2.046875 -21.234375 L 6.53125 -25.015625 C 6.644531 -25.109375 6.796875 -25.179688 6.984375 -25.234375 C 7.179688 -25.296875 7.398438 -25.328125 7.640625 -25.328125 L 11.25 -25.328125 C 11.75 -25.328125 12.171875 -25.242188 12.515625 -25.078125 C 12.867188 -24.921875 13.21875 -24.660156 13.5625 -24.296875 L 15.96875 -21.515625 L 20.15625 -25.015625 C 20.28125 -25.109375 20.4375 -25.179688 20.625 -25.234375 C 20.820312 -25.296875 21.035156 -25.328125 21.265625 -25.328125 L 26.484375 -25.328125 C 27.035156 -25.328125 27.4375 -25.195312 27.6875 -24.9375 C 27.945312 -24.6875 28.078125 -24.285156 28.078125 -23.734375 L 28.078125 -1.25 C 28.078125 -0.945312 28.035156 -0.691406 27.953125 -0.484375 C 27.867188 -0.273438 27.75 -0.101562 27.59375 0.03125 L 23.078125 3.78125 C 22.984375 3.875 22.835938 3.953125 22.640625 4.015625 C 22.441406 4.085938 22.226562 4.125 22 4.125 L 16.796875 4.125 C 16.242188 4.125 15.835938 3.992188 15.578125 3.734375 C 15.328125 3.484375 15.203125 3.082031 15.203125 2.53125 L 15.203125 -1.59375 L 14.4375 -2.53125 L 14.4375 -1.25 C 14.4375 -0.945312 14.394531 -0.691406 14.3125 -0.484375 C 14.226562 -0.273438 14.109375 -0.101562 13.953125 0.03125 Z M 13.953125 0.03125 "/></g></g></g><g fill="#400e63" fill-opacity="1"><g transform="translate(270.835764, 44.804727)"><g><path d="M 21 4.125 L 10.0625 4.125 C 7.03125 4.125 4.789062 3.335938 3.34375 1.765625 C 1.90625 0.191406 1.1875 -1.84375 1.1875 -4.34375 L 1.1875 -14.125 C 1.1875 -15.394531 1.367188 -16.492188 1.734375 -17.421875 C 2.109375 -18.347656 2.648438 -19.125 3.359375 -19.75 L 7.84375 -23.53125 C 8.5625 -24.132812 9.476562 -24.582031 10.59375 -24.875 C 11.71875 -25.175781 13.035156 -25.328125 14.546875 -25.328125 L 23.21875 -25.328125 C 23.769531 -25.328125 24.171875 -25.195312 24.421875 -24.9375 C 24.679688 -24.6875 24.8125 -24.285156 24.8125 -23.734375 L 24.8125 -19.53125 C 24.8125 -19.238281 24.769531 -18.988281 24.6875 -18.78125 C 24.601562 -18.570312 24.484375 -18.394531 24.328125 -18.25 L 19.8125 -14.5 C 19.71875 -14.40625 19.570312 -14.320312 19.375 -14.25 C 19.1875 -14.1875 18.972656 -14.15625 18.734375 -14.15625 L 14.234375 -14.15625 L 14.234375 -9.15625 C 14.253906 -9.207031 14.289062 -9.257812 14.34375 -9.3125 C 14.40625 -9.375 14.457031 -9.425781 14.5 -9.46875 L 18.984375 -13.25 C 19.097656 -13.34375 19.253906 -13.414062 19.453125 -13.46875 C 19.648438 -13.53125 19.863281 -13.5625 20.09375 -13.5625 L 25.46875 -13.5625 C 26.03125 -13.5625 26.4375 -13.4375 26.6875 -13.1875 C 26.9375 -12.9375 27.0625 -12.53125 27.0625 -11.96875 L 27.0625 -1.25 C 27.0625 -0.945312 27.019531 -0.691406 26.9375 -0.484375 C 26.863281 -0.273438 26.742188 -0.101562 26.578125 0.03125 L 22.078125 3.78125 C 21.984375 3.875 21.835938 3.953125 21.640625 4.015625 C 21.441406 4.085938 21.226562 4.125 21 4.125 Z M 25.46875 0 C 25.90625 0 26.222656 -0.0976562 26.421875 -0.296875 C 26.617188 -0.492188 26.71875 -0.8125 26.71875 -1.25 L 26.71875 -11.96875 C 26.71875 -12.40625 26.617188 -12.722656 26.421875 -12.921875 C 26.222656 -13.117188 25.90625 -13.21875 25.46875 -13.21875 L 20.09375 -13.21875 C 19.65625 -13.21875 19.335938 -13.117188 19.140625 -12.921875 C 18.941406 -12.722656 18.84375 -12.40625 18.84375 -11.96875 L 18.84375 -6.5625 L 15.484375 -6.5625 C 14.941406 -6.5625 14.535156 -6.695312 14.265625 -6.96875 C 14.003906 -7.25 13.875 -7.679688 13.875 -8.265625 L 13.875 -16.546875 C 13.875 -17.128906 14.046875 -17.5625 14.390625 -17.84375 C 14.742188 -18.132812 15.28125 -18.28125 16 -18.28125 L 23.21875 -18.28125 C 23.65625 -18.28125 23.972656 -18.378906 24.171875 -18.578125 C 24.367188 -18.773438 24.46875 -19.09375 24.46875 -19.53125 L 24.46875 -23.734375 C 24.46875 -24.171875 24.367188 -24.488281 24.171875 -24.6875 C 23.972656 -24.882812 23.65625 -24.984375 23.21875 -24.984375 L 14.546875 -24.984375 C 11.648438 -24.984375 9.5 -24.40625 8.09375 -23.25 C 6.695312 -22.09375 6 -20.3125 6 -17.90625 L 6 -7.078125 C 6 -4.671875 6.695312 -2.890625 8.09375 -1.734375 C 9.5 -0.578125 11.648438 0 14.546875 0 Z M 16.03125 -3.125 C 14.757812 -3.125 13.71875 -3.203125 12.90625 -3.359375 C 12.09375 -3.523438 11.457031 -3.785156 11 -4.140625 C 10.539062 -4.503906 10.222656 -4.96875 10.046875 -5.53125 C 9.867188 -6.101562 9.78125 -6.789062 9.78125 -7.59375 L 9.78125 -17.3125 C 9.78125 -18.957031 10.148438 -20.125 10.890625 -20.8125 C 11.628906 -21.507812 13.113281 -21.859375 15.34375 -21.859375 L 21.34375 -21.859375 L 21.34375 -21.515625 L 15.34375 -21.515625 C 13.300781 -21.515625 11.921875 -21.195312 11.203125 -20.5625 C 10.492188 -19.925781 10.140625 -18.84375 10.140625 -17.3125 L 10.140625 -7.59375 C 10.140625 -6.09375 10.535156 -5.03125 11.328125 -4.40625 C 12.128906 -3.78125 13.695312 -3.46875 16.03125 -3.46875 L 22.59375 -3.46875 L 22.59375 -10.09375 L 22.9375 -10.09375 L 22.9375 -3.125 Z M 16.03125 -3.125 "/></g></g></g></svg>