<svg width="212" height="187" viewBox="0 0 212 187" fill="none" xmlns="http://www.w3.org/2000/svg">
<g id="Group 1">
<g id="Group">
<path id="Vector" d="M25.9427 43.2865V5.17773C25.9427 3.42698 24.0833 2 21.8073 2C14.9531 2 9.39062 6.26894 9.39062 11.5292V43.2865H25.9427Z" fill="#8769B6"/>
</g>
<path id="Vector_2" d="M67.3229 26.7344V14.3177C67.3229 9.7448 71.026 6.04167 75.599 6.04167H88.0104C92.5885 6.04167 96.2865 9.7448 96.2865 14.3177V26.7344H67.3229Z" fill="#8769B6"/>
<path id="Vector_3" d="M104.562 43.2865V30.8698C104.562 26.2969 100.865 22.5938 96.2865 22.5938H50.7708C46.1979 22.5938 42.4948 26.2969 42.4948 30.8698V43.2865H104.562Z" fill="#A8AEDD"/>
<g id="Group_2">
<path id="Vector_4" d="M113.953 92.9375H195.599V59.8333H113.953V92.9375Z" fill="#8769B6"/>
</g>
<g id="mini-legs">
<g id="Group_3">
<path id="Vector_5" d="M63.1133 120L66.724 131.092L63.4857 135.556L46.0728 168.481L46.6749 170.331L21.2393 178.611L20.6371 176.761L46.7584 127.37L46.1562 125.52L63.1133 120Z" fill="#A8AEDD"/>
</g>
<g id="Group_4">
<path id="Vector_6" d="M79.1025 117L75.5291 129.086L78.8138 133.711L96.5257 168.15L95.9298 170.166L121.582 177.75L122.178 175.734L95.6078 124.072L96.2037 122.056L79.1025 117Z" fill="#A8AEDD"/>
</g>
<g id="Group_5">
<path id="Vector_7" d="M83.875 126.042V182H59.0469V126.042H83.875Z" fill="#8769B6"/>
</g>
<g id="Group_6">
<path id="Vector_8" d="M27.5365 165.953H41.7708C44.2604 165.953 46.6458 166.953 48.4063 168.734C50.1667 170.516 51.1563 172.932 51.1563 175.453C51.1563 177.969 50.1667 180.385 48.4063 182.167C46.6458 183.948 44.2604 184.948 41.7708 184.948H27.5365C25.0469 184.948 22.6615 183.948 20.901 182.167C19.1406 180.385 18.1562 177.969 18.1562 175.453C18.1562 172.932 19.1406 170.516 20.901 168.734C22.6615 166.953 25.0469 165.953 27.5365 165.953Z" fill="#400E63"/>
</g>
<g id="Group_7">
<path id="Vector_9" d="M64.1719 165.953H78.4062C80.8906 165.953 83.2812 166.953 85.0365 168.734C86.7969 170.516 87.7865 172.932 87.7865 175.453C87.7865 177.969 86.7969 180.385 85.0365 182.167C83.2812 183.948 80.8906 184.948 78.4062 184.948H64.1719C61.6823 184.948 59.2969 183.948 57.5365 182.167C55.776 180.385 54.7865 177.969 54.7865 175.453C54.7865 172.932 55.776 170.516 57.5365 168.734C59.2969 166.953 61.6823 165.953 64.1719 165.953Z" fill="#400E63"/>
</g>
<g id="Group_8">
<path id="Vector_10" d="M100.802 165.953H115.036C117.526 165.953 119.911 166.953 121.672 168.734C123.432 170.516 124.422 172.932 124.422 175.453C124.422 177.969 123.432 180.385 121.672 182.167C119.911 183.948 117.526 184.948 115.036 184.948H100.802C98.3125 184.948 95.9271 183.948 94.1667 182.167C92.4063 180.385 91.4219 177.969 91.4219 175.453C91.4219 172.932 92.4063 170.516 94.1667 168.734C95.9271 166.953 98.3125 165.953 100.802 165.953Z" fill="#400E63"/>
</g>
</g>
<g id="mini-house">
<path id="Vector_11" d="M104.563 109.49V121.906C104.563 126.479 100.865 130.182 96.2865 130.182H46.6354C42.0573 130.182 38.3594 126.479 38.3594 121.906V109.49H104.563Z" fill="#400E63"/>
<g id="Group_9">
<path id="Vector_12" d="M25.9427 113.63H108.703C113.276 113.63 116.979 109.927 116.979 105.354V47.4219C116.979 42.849 113.276 39.1458 108.703 39.1458H13.5312C8.95312 39.1458 5.2552 42.849 5.2552 47.4219V92.9375C5.2552 104.365 14.5156 113.63 25.9427 113.63Z" fill="#400E63"/>
</g>
</g>
<g id="mini-barrel">
<path id="Vector_13" d="M170.308 54H198.692C203.833 54 208 58.1037 208 63.1614V88.8229C208 93.8859 203.833 97.9896 198.692 97.9896H170.308C165.167 97.9896 161 93.8859 161 88.8229V63.1614C161 58.1037 165.167 54 170.308 54Z" fill="#400E63"/>
</g>
</g>
</svg>
