<svg width="247" height="187" viewBox="0 0 247 187" fill="none" xmlns="http://www.w3.org/2000/svg">
<g id="Frame 1">
<path id="run-exhaust" d="M25.9427 43.2865V5.17773C25.9427 3.42698 24.0833 2 21.8073 2C14.9531 2 9.39062 6.26894 9.39062 11.5292V43.2865H25.9427Z" fill="#8769B6"/>
<g id="run-hat">
<path id="run-top" d="M67.3229 26.7344V14.3177C67.3229 9.7448 71.026 6.04167 75.599 6.04167H88.0104C92.5885 6.04167 96.2865 9.7448 96.2865 14.3177V26.7344H67.3229Z" fill="#8769B6"/>
<path id="run-body" d="M104.562 43.2865V30.8698C104.562 26.2969 100.865 22.5938 96.2865 22.5938H50.7708C46.1979 22.5938 42.4948 26.2969 42.4948 30.8698V43.2865H104.562Z" fill="#A8AEDD"/>
</g>
<g id="run-tripod">
<g id="run-legs">
<path id="run-left-leg" d="M63.1133 120L66.724 131.092L63.4857 135.556L46.0728 168.481L46.6749 170.331L21.2393 178.611L20.6371 176.761L46.7584 127.37L46.1562 125.52L63.1133 120Z" fill="#A8AEDD"/>
<path id="run-right-leg" d="M79.1025 117L75.5291 129.086L78.8138 133.711L96.5257 168.15L95.9298 170.166L121.582 177.75L122.178 175.734L95.6078 124.072L96.2037 122.056L79.1025 117Z" fill="#A8AEDD"/>
<path id="run-middle-leg" d="M83.875 126.042V182H59.0469V126.042H83.875Z" fill="#8769B6"/>
</g>
<g id="run-feet">
<path id="run-left-foot" d="M27.5365 165.953H41.7708C44.2604 165.953 46.6458 166.953 48.4063 168.734C50.1667 170.516 51.1563 172.932 51.1563 175.453C51.1563 177.969 50.1667 180.385 48.4063 182.167C46.6458 183.948 44.2604 184.948 41.7708 184.948H27.5365C25.0469 184.948 22.6615 183.948 20.901 182.167C19.1406 180.385 18.1562 177.969 18.1562 175.453C18.1562 172.932 19.1406 170.516 20.901 168.734C22.6615 166.953 25.0469 165.953 27.5365 165.953Z" fill="#400E63"/>
<path id="run-middle-foot" d="M64.1719 165.953H78.4062C80.8906 165.953 83.2812 166.953 85.0365 168.734C86.7969 170.516 87.7865 172.932 87.7865 175.453C87.7865 177.969 86.7969 180.385 85.0365 182.167C83.2812 183.948 80.8906 184.948 78.4062 184.948H64.1719C61.6823 184.948 59.2969 183.948 57.5365 182.167C55.776 180.385 54.7865 177.969 54.7865 175.453C54.7865 172.932 55.776 170.516 57.5365 168.734C59.2969 166.953 61.6823 165.953 64.1719 165.953Z" fill="#400E63"/>
<path id="run-right-foot" d="M100.802 165.953H115.036C117.526 165.953 119.911 166.953 121.672 168.734C123.432 170.516 124.422 172.932 124.422 175.453C124.422 177.969 123.432 180.385 121.672 182.167C119.911 183.948 117.526 184.948 115.036 184.948H100.802C98.3125 184.948 95.9271 183.948 94.1667 182.167C92.4063 180.385 91.4219 177.969 91.4219 175.453C91.4219 172.932 92.4063 170.516 94.1667 168.734C95.9271 166.953 98.3125 165.953 100.802 165.953Z" fill="#400E63"/>
</g>
</g>
<circle id="run-bullet" cx="185" cy="76" r="7" fill="#170524"/>
<g id="run-barrel">
<path id="run-lg-barrel" d="M113.953 92.9375H195.599V59.8333H113.953V92.9375Z" fill="#8769B6"/>
<path id="run-muzzle" d="M170.308 54H198.692C203.833 54 208 58.1037 208 63.1614V88.8229C208 93.8859 203.833 97.9896 198.692 97.9896H170.308C165.167 97.9896 161 93.8859 161 88.8229V63.1614C161 58.1037 165.167 54 170.308 54Z" fill="#400E63"/>
</g>
<g id="run-house">
<path id="run-base" d="M104.563 109.49V121.906C104.563 126.479 100.865 130.182 96.2865 130.182H46.6354C42.0573 130.182 38.3594 126.479 38.3594 121.906V109.49H104.563Z" fill="#400E63"/>
<path id="run-mini-house" d="M25.9427 113.63H108.703C113.276 113.63 116.979 109.927 116.979 105.354V47.4219C116.979 42.849 113.276 39.1458 108.703 39.1458H13.5312C8.95312 39.1458 5.2552 42.849 5.2552 47.4219V92.9375C5.2552 104.365 14.5156 113.63 25.9427 113.63Z" fill="#400E63"/>
</g>
<path id="run-text" d="M32.9128 68.64V72.992H35.4628C36.0521 72.992 36.4488 72.8447 36.6528 72.55C36.8568 72.2327 36.9588 71.8473 36.9588 71.394V70.238C36.9588 69.7847 36.8568 69.4107 36.6528 69.116C36.4488 68.7987 36.0521 68.64 35.4628 68.64H32.9128ZM31.6888 87H26.4528C26.0221 87 25.7048 86.9093 25.5008 86.728C25.3195 86.524 25.2288 86.2067 25.2288 85.776V63.744C25.2288 63.3133 25.3195 63.0073 25.5008 62.826C25.7048 62.622 26.0221 62.52 26.4528 62.52H37.7748C40.3135 62.52 42.0588 63.0527 43.0108 64.118C43.9855 65.1607 44.4728 66.5207 44.4728 68.198V69.762C44.4728 70.714 44.3255 71.53 44.0308 72.21C43.7588 72.8673 43.2715 73.3433 42.5688 73.638C43.7928 73.774 44.7788 74.2727 45.5268 75.134C46.2975 75.9953 46.6828 77.14 46.6828 78.568V85.776C46.6828 86.2067 46.5808 86.524 46.3768 86.728C46.1955 86.9093 45.8895 87 45.4588 87H40.1888C39.7581 87 39.4408 86.9093 39.2368 86.728C39.0555 86.524 38.9648 86.2067 38.9648 85.776V80.574C38.9648 80.0753 38.8628 79.7127 38.6588 79.486C38.4775 79.2367 38.1488 79.112 37.6728 79.112H32.9128V85.776C32.9128 86.2067 32.8108 86.524 32.6068 86.728C32.4255 86.9093 32.1195 87 31.6888 87ZM71.3384 80.574C71.3384 81.6167 71.1797 82.5687 70.8624 83.43C70.5677 84.2687 70.0237 84.994 69.2304 85.606C68.4597 86.1953 67.3944 86.66 66.0344 87C64.6744 87.34 62.9404 87.51 60.8324 87.51C58.7244 87.51 56.9904 87.34 55.6304 87C54.2704 86.66 53.1937 86.1953 52.4004 85.606C51.6297 84.994 51.0857 84.2687 50.7684 83.43C50.4737 82.5687 50.3264 81.6167 50.3264 80.574V63.744C50.3264 63.3133 50.4171 63.0073 50.5984 62.826C50.8024 62.622 51.1197 62.52 51.5504 62.52H56.8884C57.3191 62.52 57.6251 62.622 57.8064 62.826C58.0104 63.0073 58.1124 63.3133 58.1124 63.744V79.248C58.1124 79.7013 58.2824 80.0867 58.6224 80.404C58.9624 80.6987 59.7217 80.846 60.9004 80.846C62.1017 80.846 62.8724 80.6987 63.2124 80.404C63.5524 80.0867 63.7224 79.7013 63.7224 79.248V63.744C63.7224 63.3133 63.8131 63.0073 63.9944 62.826C64.1984 62.622 64.5157 62.52 64.9464 62.52H70.1144C70.5451 62.52 70.8511 62.622 71.0324 62.826C71.2364 63.0073 71.3384 63.3133 71.3384 63.744V80.574ZM82.1876 87H77.0876C76.6569 87 76.3396 86.9093 76.1356 86.728C75.9542 86.524 75.8636 86.2067 75.8636 85.776V63.744C75.8636 63.3133 75.9542 63.0073 76.1356 62.826C76.3396 62.622 76.6569 62.52 77.0876 62.52H80.6236C81.0542 62.52 81.4169 62.588 81.7116 62.724C82.0289 62.86 82.3349 63.098 82.6296 63.438L89.2256 70.986V63.744C89.2256 63.3133 89.3162 63.0073 89.4976 62.826C89.7016 62.622 90.0189 62.52 90.4496 62.52H95.5496C95.9802 62.52 96.2862 62.622 96.4676 62.826C96.6716 63.0073 96.7736 63.3133 96.7736 63.744V85.776C96.7736 86.2067 96.6716 86.524 96.4676 86.728C96.2862 86.9093 95.9802 87 95.5496 87H90.4496C90.0189 87 89.7016 86.9093 89.4976 86.728C89.3162 86.524 89.2256 86.2067 89.2256 85.776V81.594L83.4116 74.556V85.776C83.4116 86.2067 83.3096 86.524 83.1056 86.728C82.9242 86.9093 82.6182 87 82.1876 87Z" fill="#B6F486"/>
<g id="run-shot-effects">
<rect id="run-shot-effect1" width="33.3842" height="3.61802" rx="1.80901" transform="matrix(0.816902 -0.576777 0.754111 0.656747 212 65.2552)" fill="#170524"/>
<rect id="run-shot-effect2" width="33.3842" height="3.61802" rx="1.80901" transform="matrix(0.816902 0.576777 -0.754111 0.656747 214.728 84.3686)" fill="#170524"/>
</g>
</g>
</svg>
