<svg width="600" height="500" viewBox="0 0 600 500" fill="none" xmlns="http://www.w3.org/2000/svg">
<g id="Frame 2">
<g id="legs">
<path id="Vector" d="M125.518 283.688V333.859L117.106 347.807L66.6484 459.292V467.651H16.1907V459.292L91.8799 292.047V283.688H125.518Z" fill="#A8AEDD"/>
<path id="Vector_2" d="M159.157 283.688V333.859L167.569 347.807L218.027 459.292V467.651H268.485V459.292L192.795 292.047V283.688H159.157Z" fill="#A8AEDD"/>
<path id="Vector_3" d="M167.569 283.688V467.651H117.106V283.688H167.569Z" fill="#8769B6"/>
</g>
<g id="Group">
<path id="Vector_4" d="M49.8292 116.443V16.099C49.8292 11.4948 46.0526 7.73959 41.4222 7.73959C27.4943 7.73959 16.1907 18.974 16.1907 32.8229V116.443H49.8292Z" fill="#8769B6"/>
</g>
<path id="Vector_5" d="M133.925 82.9948V57.9115C133.925 48.6667 141.452 41.1875 150.75 41.1875H175.976C185.274 41.1875 192.795 48.6667 192.795 57.9115V82.9948H133.925Z" fill="#8769B6"/>
<path id="Vector_6" d="M209.615 116.443V91.3594C209.615 82.1146 202.093 74.6354 192.795 74.6354H100.287C90.9947 74.6354 83.4677 82.1146 83.4677 91.3594V116.443H209.615Z" fill="#A8AEDD"/>
<g id="Group_2">
<path id="Vector_7" d="M167.569 492.74H117.106C112.476 492.74 108.699 488.979 108.699 484.375V467.651C108.699 463.047 112.476 459.292 117.106 459.292H167.569C172.2 459.292 175.976 463.047 175.976 467.651V484.375C175.976 488.979 172.2 492.74 167.569 492.74Z" fill="#400E63"/>
</g>
<g id="Group_3">
<path id="Vector_8" d="M66.6484 492.74H16.1907C11.5603 492.74 7.78368 488.979 7.78368 484.375V467.651C7.78368 463.047 11.5603 459.292 16.1907 459.292H66.6484C71.2841 459.292 75.0607 463.047 75.0607 467.651V484.375C75.0607 488.979 71.2841 492.74 66.6484 492.74Z" fill="#400E63"/>
</g>
<g id="Group_4">
<path id="Vector_9" d="M218.027 492.74H268.485C273.115 492.74 276.892 488.979 276.892 484.375V467.651C276.892 463.047 273.115 459.292 268.485 459.292H218.027C213.391 459.292 209.615 463.047 209.615 467.651V484.375C209.615 488.979 213.391 492.74 218.027 492.74Z" fill="#400E63"/>
</g>
<g id="bullets">
<ellipse id="bullet1" cx="441" cy="183.5" rx="25" ry="7.5" fill="#170524"/>
<ellipse id="bullet2" cx="441" cy="183.5" rx="25" ry="7.5" fill="#170524"/>
<ellipse id="bullet3" cx="441" cy="183.5" rx="25" ry="7.5" fill="#170524"/>
<ellipse id="bullet4" cx="441" cy="183.5" rx="25" ry="7.5" fill="#170524"/>
<ellipse id="bullet5" cx="441" cy="183.5" rx="25" ry="7.5" fill="#170524"/>
</g>
<g id="lg-barrel">
<path id="Vector_10" d="M228.702 216.792H394.632V149.896H228.702V216.792Z" fill="#8769B6"/>
</g>
<g id="barrel">
<path id="Vector_11" d="M487.135 225.151H403.039C393.741 225.151 386.219 217.672 386.219 208.427V158.255C386.219 149.01 393.741 141.531 403.039 141.531H487.135C491.765 141.531 495.547 145.286 495.547 149.896V216.792C495.547 221.396 491.765 225.151 487.135 225.151Z" fill="#400E63"/>
</g>
<g id="house">
<path id="Vector_12" d="M209.615 250.24V275.323C209.615 284.568 202.093 292.047 192.795 292.047H91.8799C82.5825 292.047 75.0607 284.568 75.0607 275.323V250.24H209.615Z" fill="#400E63"/>
<g id="Group_5">
<path id="Vector_13" d="M49.8292 258.599H218.027C227.319 258.599 234.846 251.12 234.846 241.875V124.807C234.846 115.563 227.319 108.083 218.027 108.083H24.6029C15.3054 108.083 7.78366 115.563 7.78366 124.807V216.792C7.78366 239.885 26.6038 258.599 49.8292 258.599Z" fill="#400E63"/>
</g>
</g>
<g id="shot-effects">
<rect id="shot-effect1" x="518" y="150.222" width="90" height="10" rx="5" transform="rotate(-42 518 150.222)" fill="#170524"/>
<rect id="shot-effect2" x="524.691" y="210" width="90" height="10" rx="5" transform="rotate(42 524.691 210)" fill="#170524"/>
</g>
</g>
</svg>
