<svg width="500" height="500" viewBox="0 0 500 500" fill="none" xmlns="http://www.w3.org/2000/svg">
<g id="gun-turret 1">
<g id="legs">
<path id="Vector" d="M124.807 283.688V333.859L116.443 347.807L66.2708 459.292V467.651H16.0989V459.292L91.3594 292.047V283.688H124.807Z" fill="#A8AEDD"/>
<path id="Vector_2" d="M158.255 283.688V333.859L166.62 347.807L216.792 459.292V467.651H266.964V459.292L191.703 292.047V283.688H158.255Z" fill="#A8AEDD"/>
<path id="Vector_3" d="M166.62 283.688V467.651H116.443V283.688H166.62Z" fill="#8769B6"/>
</g>
<g id="Group">
<path id="Vector_4" d="M49.5469 116.443V16.099C49.5469 11.4948 45.7916 7.73959 41.1875 7.73959C27.3385 7.73959 16.0989 18.974 16.0989 32.8229V116.443H49.5469Z" fill="#8769B6"/>
</g>
<path id="Vector_5" d="M133.167 82.9948V57.9115C133.167 48.6667 140.651 41.1875 149.896 41.1875H174.979C184.224 41.1875 191.703 48.6667 191.703 57.9115V82.9948H133.167Z" fill="#8769B6"/>
<path id="Vector_6" d="M208.427 116.443V91.3594C208.427 82.1146 200.948 74.6354 191.703 74.6354H99.7187C90.4792 74.6354 82.9948 82.1146 82.9948 91.3594V116.443H208.427Z" fill="#A8AEDD"/>
<g id="Group_2">
<path id="Vector_7" d="M166.62 492.74H116.443C111.839 492.74 108.083 488.979 108.083 484.375V467.651C108.083 463.047 111.839 459.292 116.443 459.292H166.62C171.224 459.292 174.979 463.047 174.979 467.651V484.375C174.979 488.979 171.224 492.74 166.62 492.74Z" fill="#400E63"/>
</g>
<g id="Group_3">
<path id="Vector_8" d="M66.2708 492.74H16.0989C11.4948 492.74 7.73956 488.979 7.73956 484.375V467.651C7.73956 463.047 11.4948 459.292 16.0989 459.292H66.2708C70.8802 459.292 74.6354 463.047 74.6354 467.651V484.375C74.6354 488.979 70.8802 492.74 66.2708 492.74Z" fill="#400E63"/>
</g>
<g id="Group_4">
<path id="Vector_9" d="M216.792 492.74H266.964C271.568 492.74 275.323 488.979 275.323 484.375V467.651C275.323 463.047 271.568 459.292 266.964 459.292H216.792C212.182 459.292 208.427 463.047 208.427 467.651V484.375C208.427 488.979 212.182 492.74 216.792 492.74Z" fill="#400E63"/>
</g>
<g id="lg-barrel">
<path id="Vector_10" d="M227.406 216.792H392.396V149.896H227.406V216.792Z" fill="#8769B6"/>
</g>
<g id="barrel">
<path id="Vector_11" d="M484.375 225.151H400.755C391.51 225.151 384.031 217.672 384.031 208.427V158.255C384.031 149.01 391.51 141.531 400.755 141.531H484.375C488.979 141.531 492.74 145.286 492.74 149.896V216.792C492.74 221.396 488.979 225.151 484.375 225.151Z" fill="#400E63"/>
</g>
<g id="house">
<path id="Vector_12" d="M208.427 250.24V275.323C208.427 284.568 200.948 292.047 191.703 292.047H91.3594C82.1146 292.047 74.6354 284.568 74.6354 275.323V250.24H208.427Z" fill="#400E63"/>
<g id="Group_5">
<path id="Vector_13" d="M49.5469 258.599H216.792C226.031 258.599 233.516 251.12 233.516 241.875V124.807C233.516 115.563 226.031 108.083 216.792 108.083H24.4635C15.2187 108.083 7.73956 115.563 7.73956 124.807V216.792C7.73956 239.885 26.4531 258.599 49.5469 258.599Z" fill="#400E63"/>
</g>
</g>
</g>
</svg>
